<?xml version="1.0" standalone="no"?>
<!DOCTYPE svg PUBLIC "-//W3C//DTD SVG 20010904//EN"
 "http://www.w3.org/TR/2001/REC-SVG-20010904/DTD/svg10.dtd">
<svg version="1.0" xmlns="http://www.w3.org/2000/svg"
 width="200.000000pt" height="200.000000pt" viewBox="0 0 200.000000 200.000000"
 preserveAspectRatio="xMidYMid meet">
<metadata>
Created by potrace 1.14, written by Peter Selinger 2001-2017
</metadata>
<g transform="translate(0.000000,200.000000) scale(0.100000,-0.100000)"
fill="#000000" stroke="none">
<path d="M348 1365 c-1 -2 -16 -6 -33 -8 -56 -11 -71 -15 -118 -37 -80 -38
-104 -90 -55 -124 16 -12 27 -9 81 19 169 88 341 68 393 -47 26 -58 23 -175
-6 -252 -43 -113 -125 -170 -252 -175 l-59 -2 5 40 c3 23 8 58 11 79 3 20 14
80 26 132 25 120 27 127 34 152 15 45 -67 74 -109 39 -21 -18 -75 -262 -91
-414 -11 -104 5 -118 140 -123 116 -4 237 24 291 68 67 55 131 142 140 193 1
6 7 30 12 55 11 49 9 147 -3 195 -23 87 -102 167 -193 196 -40 13 -203 24
-214 14z"/>
<path d="M1625 1356 c-59 -34 -87 -92 -88 -181 0 -71 21 -127 66 -173 l32 -33
-30 -57 c-37 -71 -113 -152 -143 -152 -36 0 -60 33 -68 97 -13 101 -8 256 12
416 8 55 -12 87 -53 87 -50 0 -65 -18 -79 -100 -49 -269 -151 -500 -220 -500
-14 0 -32 28 -40 61 -2 10 -6 29 -9 42 -14 55 -5 285 14 393 12 66 -9 104 -59
104 -48 -1 -61 -22 -75 -122 -12 -87 -14 -349 -2 -393 3 -11 10 -39 16 -61 25
-93 95 -153 163 -140 43 8 104 48 100 65 -1 7 2 10 7 7 11 -7 54 61 88 139 14
31 23 42 23 30 8 -127 62 -225 132 -241 32 -7 118 13 118 27 0 5 6 9 14 9 21
0 111 103 157 180 l41 69 64 -6 c53 -5 68 -2 84 12 45 41 16 83 -57 86 -29 2
-53 4 -53 7 0 2 7 32 16 66 45 169 -3 282 -117 275 -20 -2 -44 -8 -54 -13z
m71 -97 c16 -26 -8 -189 -28 -189 -16 0 -38 61 -38 107 0 68 42 120 66 82z"/>
</g>
</svg>
